<?xml version="1.0" encoding="utf-8"?>
<!-- Generator: Adobe Illustrator 21.1.0, SVG Export Plug-In . SVG Version: 6.00 Build 0)  -->
<svg version="1.1" id="Layer_1" xmlns="http://www.w3.org/2000/svg" xmlns:xlink="http://www.w3.org/1999/xlink" x="0px" y="0px"
	 viewBox="0 0 50 50" style="enable-background:new 0 0 50 50;" xml:space="preserve">
<style type="text/css">
	.st0{fill:#FFFFFF;}
</style>
<g>
	<circle cx="26" cy="25" r="23"/>
</g>
<g>
	<path d="M26,45.5C14.7,45.5,5.5,36.3,5.5,25S14.7,4.5,26,4.5S46.5,13.7,46.5,25S37.3,45.5,26,45.5z"/>
	<path class="st0" d="M26,5c11,0,20,9,20,20s-9,20-20,20S6,36,6,25S15,5,26,5 M26,4C14.4,4,5,13.4,5,25s9.4,21,21,21s21-9.4,21-21
		S37.6,4,26,4L26,4z"/>
</g>
<g>
	<path d="M26,41.6c-9.2,0-16.6-7.4-16.6-16.6S16.8,8.4,26,8.4S42.6,15.8,42.6,25S35.2,41.6,26,41.6z"/>
	<path class="st0" d="M26,8.8c8.9,0,16.2,7.3,16.2,16.2S34.9,41.2,26,41.2S9.8,33.9,9.8,25S17.1,8.8,26,8.8 M26,8
		C16.6,8,9,15.6,9,25s7.6,17,17,17s17-7.6,17-17S35.4,8,26,8L26,8z"/>
</g>
<g>
	<path class="st0" d="M26,38.7c-7.5,0-13.7-6.1-13.7-13.7S18.5,11.3,26,11.3S39.7,17.5,39.7,25S33.5,38.7,26,38.7z"/>
	<path d="M26,11.7c7.4,0,13.3,6,13.3,13.3s-6,13.3-13.3,13.3s-13.3-6-13.3-13.3S18.6,11.7,26,11.7 M26,11c-7.7,0-14,6.3-14,14
		s6.3,14,14,14s14-6.3,14-14S33.7,11,26,11L26,11z"/>
</g>
</svg>
